Coordinates
version=1
nRows=11
nColumns=36
inDegrees=yes

Units are S.I. units (second, meters, Newtons, ...)
If the header above contains a line with 'inDegrees', this indicates whether rotational values are in degrees (yes) or radians (no).

endheader
time	pelvis_tilt	pelvis_list	pelvis_rotation	pelvis_tx	pelvis_ty	pelvis_tz	hip_flexion_r	hip_adduction_r	hip_rotation_r	knee_angle_r	knee_angle_r_beta	ankle_angle_r	subtalar_angle_r	mtp_angle_r	hip_flexion_l	hip_adduction_l	hip_rotation_l	knee_angle_l	knee_angle_l_beta	ankle_angle_l	subtalar_angle_l	mtp_angle_l	lumbar_extension	lumbar_bending	lumbar_rotation	arm_flex_r	arm_add_r	arm_rot_r	elbow_flex_r	pro_sup_r	arm_flex_l	arm_add_l	arm_rot_l	elbow_flex_l	pro_sup_l
      5.36666670	     -4.66214389	     -0.42371116	      2.03064276	     -0.11485644	      1.16123683	      0.06885410	      2.64999252	      2.35132996	      1.46856669	      0.45300240	      0.00790638	     10.06350327	      4.08066654	     -7.49999987	     12.18099409	      1.04546188	      3.55750990	     17.18163028	      0.29987602	     11.80947163	     -2.95928417	     -7.49999987	      4.14599917	      1.64231284	      3.25279002	     -0.58154458	     -6.32284826	     10.57475879	     27.83461761	     78.25890158	    -15.10497912	     -6.65506558	     -1.48481817	    104.03092865	    101.77919913
      5.38333330	     -4.53191601	     -0.41458804	      2.33700848	     -0.11292881	      1.15970917	      0.06819094	      2.64416907	      2.35476398	      1.44829023	      0.60166566	      0.01050105	      9.66556395	      3.24956644	     -7.49999987	     11.19662519	      1.16408704	      4.10127741	     15.70354678	      0.27407860	     11.27980245	     -3.13291814	     -7.49999987	      4.21091607	      1.56400820	      2.98720478	     -0.77252327	     -6.34120350	      9.46237941	     28.36290153	     77.56066394	    -15.26770954	     -6.86711480	     -0.98249721	    104.85919852	    100.50730676
      5.40000000	     -4.29738840	     -0.41676273	      2.63446616	     -0.11304164	      1.15875002	      0.06692861	      2.60244740	      2.37831104	      1.45792260	      0.91310178	      0.01593663	      9.18669274	      2.16081978	     -7.49999987	     10.11466045	      1.22531174	      4.34924163	     14.23338709	      0.24841947	     11.02595681	     -3.14628183	     -7.49999987	      4.07558990	      1.48283402	      2.61470029	     -0.95188883	     -6.55109458	      8.97689281	     29.28333138	     78.59987592	    -15.32646967	     -6.91856614	     -0.75168054	    105.72772053	    103.15737868
      5.41666670	     -4.16621423	     -0.45330578	      3.07555145	     -0.11042264	      1.15360232	      0.06730773	      2.78920388	      2.47208020	      1.57917657	      1.50273431	      0.02622766	      9.02775605	      1.01654262	     -7.49999987	      9.07003592	      1.23433745	      4.79553799	     12.77426381	      0.22295296	     10.97818129	     -3.28778569	     -7.49999987	      4.12908947	      1.42434639	      2.29250008	     -1.27571304	     -6.62692234	      7.89498128	     30.16002012	     77.15748063	    -14.75088232	     -7.41748136	      0.19684507	    106.24054521	    100.62632814
      5.43333330	     -4.04782193	     -0.49382070	      3.46931303	     -0.11105124	      1.15426109	      0.06721275	      3.14593339	      2.56791830	      1.62507274	      2.38634552	      0.04164959	      8.96345598	     -0.23808047	     -7.49999987	      8.02999598	      1.18247917	      5.01401512	     11.23154024	      0.19602736	     10.97803224	     -2.89540891	     -7.49999987	      4.16343419	      1.37080826	      1.36668827	     -1.05736631	     -6.80095068	      7.94219670	     30.69573704	     79.03269386	    -15.13157438	     -7.29801745	     -0.27863722	    107.16238081	    102.24789479
      5.45000000	     -3.88575770	     -0.56766464	      3.87593678	     -0.10988378	      1.15432313	      0.06760701	      3.56680057	      2.72769902	      1.60890313	      3.42464519	      0.05977133	      9.10637327	     -1.29704897	     -7.49999987	      6.94535776	      1.05311099	      5.20622839	      9.67372641	      0.16883838	     10.91841904	     -2.50915003	     -7.49999987	      4.13945286	      1.38252579	      1.24267875	     -1.49025898	     -6.97982046	      7.23335206	     31.72436612	     77.27386928	    -14.55943233	     -7.66720179	      0.85685327	    107.42653637	     98.48778141
      5.46666670	     -3.85908078	     -0.62919442	      4.31158010	     -0.11004672	      1.15344305	      0.06773641	      4.17524555	      2.87053146	      1.71795852	      4.67672684	      0.08162428	      9.21726406	     -2.68521701	     -7.49999987	      6.05037063	      0.94353752	      5.36442354	      8.21690220	      0.14341200	     10.88671239	     -2.06855313	     -7.49999987	      4.30129147	      1.34307897	      0.27588872	     -1.24176320	     -6.90080230	      6.25552629	     31.77522524	     79.89588187	    -14.76987296	     -7.51875184	      0.13009621	    107.96477142	    103.37569116
      5.48333330	     -3.70268596	     -0.67771403	      4.66782059	     -0.10859006	      1.15112379	      0.06714643	      4.63783283	      3.01474418	      1.75046467	      5.98752184	      0.10450197	      9.70171667	     -3.58373385	     -7.49999987	      5.03475042	      0.80701753	      5.53278542	      6.68769991	      0.11672238	     11.10175033	     -1.30400729	     -7.49999987	      4.28510269	      1.31705930	     -0.12541984	     -1.49024425	     -7.01258399	      5.62021831	     32.48463248	     79.01487827	    -14.14598854	     -7.73131528	      0.67371843	    108.10218581	    101.65657227
      5.50000000	     -3.62142593	     -0.74522918	      5.13453528	     -0.10912009	      1.15028854	      0.06723857	      5.26759134	      3.15868956	      1.91689715	      7.37824509	      0.12877467	     10.03064701	     -5.24177367	     -7.49999987	      4.16436493	      0.61516563	      5.33661933	      5.38137654	      0.09392274	     11.11260530	     -0.70137167	     -7.49999987	      4.39343469	      1.32954113	     -0.42909971	     -1.80079054	     -6.84504775	      3.42000877	     33.04071084	     80.52996230	    -13.27065931	     -7.83084904	      1.14791472	    107.80361372	    103.59930916
      5.51666670	     -3.52918547	     -0.74234795	      5.53068853	     -0.11120761	      1.14895768	      0.06815819	      5.83057878	      3.30479489	      2.03452431	      8.74650565	      0.15265532	     10.65494239	     -6.18210972	     -7.49999987	      3.44586796	      0.49681026	      5.24537572	      4.18646186	      0.07306754	     11.36562348	      0.10987903	     -7.49999987	      4.38458529	      1.22477730	     -0.73897464	     -1.96531548	     -6.89365227	      2.81673672	     33.66034558	     79.29313723	    -12.16984352	     -8.14852499	      1.99261230	    107.43680390	    101.87947929
      5.53333330	     -3.31272422	     -0.74264713	      5.90705392	     -0.10963995	      1.14949331	      0.06774982	      6.20556593	      3.44869752	      2.14296697	     10.16175829	      0.17735614	     11.07599651	     -7.27813677	     -7.49999987	      2.65389405	      0.38265039	      5.08154821	      3.13415410	      0.05470131	     11.36098865	      0.81193114	     -7.49999987	      4.20737171	      1.16882636	     -0.98530498	     -2.06753819	     -6.87210500	      2.07582427	     34.14372488	     78.01240000	    -11.30541974	     -8.30094159	      2.74063019	    107.06489950	    100.36680464
